<?xml version="1.0" standalone="no"?>
<!DOCTYPE svg PUBLIC "-//W3C//DTD SVG 20010904//EN"
 "http://www.w3.org/TR/2001/REC-SVG-20010904/DTD/svg10.dtd">
<svg version="1.0" xmlns="http://www.w3.org/2000/svg"
 width="796.038104pt" height="102.941690pt" viewBox="0 0 796.038104 102.941690"
 preserveAspectRatio="xMidYMid meet">
<metadata>
Created by Potrace Professional 1.1m
</metadata>
<g transform="translate(-13.000000,115.093897) rotate(-360.00) scale(0.095238,-0.095238)"
fill="#000000" stroke="none">
<path d="M1519 691 c-113 -285 -209 -526 -212 -536 -7 -17 1 -18 76 -18 l83 0
62 154 63 155 50 3 50 4 0 67 c0 53 -4 68 -16 68 -9 0 -16 6 -16 13 0 7 27 90
60 184 38 108 63 165 68 155 5 -7 33 -84 62 -169 29 -85 56 -161 59 -169 4 -9
-4 -14 -22 -14 -27 0 -27 -2 -27 -68 l0 -68 51 0 c30 0 56 -6 61 -14 4 -7 34
-77 66 -154 l58 -142 81 -3 c45 -2 81 0 81 5 0 5 -94 245 -208 533 l-209 525
-58 3 -58 3 -205 -517z"/>
<path d="M3072 1191 c-79 -20 -139 -54 -189 -110 -55 -61 -73 -107 -73 -194 0
-126 60 -211 182 -258 91 -35 95 -32 95 59 0 50 -4 79 -12 79 -6 0 -28 7 -48
17 -63 30 -84 115 -45 180 43 71 193 108 295 74 40 -13 101 -66 110 -95 5 -16
18 -19 84 -19 l78 0 -7 29 c-13 57 -56 127 -99 164 -89 76 -243 107 -371 74z"/>
<path d="M137 972 l0 -226 78 0 79 0 -2 223 -3 223 -76 3 -76 3 0 -226z"/>
<path d="M3801 668 l0 -531 79 0 79 0 0 452 0 452 150 -3 c147 -4 151 -4 190
-34 48 -37 79 -101 79 -164 0 -52 -27 -121 -59 -149 -31 -28 -93 -51 -140 -51
l-42 1 0 -79 c0 -56 4 -79 13 -79 56 1 165 25 206 47 124 62 194 217 168 374
-18 118 -84 208 -186 259 -59 28 -62 29 -298 32 l-239 4 0 -531z"/>
<path d="M4746 667 l0 -530 79 0 79 0 0 451 0 452 139 -1 c113 0 147 -4 182
-20 60 -27 91 -75 97 -149 3 -51 0 -68 -23 -107 -34 -58 -82 -82 -177 -89
l-71 -5 0 -91 0 -91 144 -174 144 -175 97 -1 c54 0 98 2 98 5 0 4 -73 92 -162
198 l-162 192 57 19 c72 25 137 81 177 154 28 50 31 66 32 151 0 74 -5 104
-23 143 -46 101 -131 166 -245 187 -30 6 -147 11 -259 11 l-203 0 0 -530z"/>
<path d="M5670 1118 l0 -78 100 0 100 0 0 -147 0 -147 73 0 74 0 0 147 0 147
99 0 100 0 0 78 0 79 -273 0 -273 0 0 -79z"/>
<path d="M6437 667 l0 -530 78 0 79 0 2 363 3 364 46 -64 45 -65 94 0 94 0
-64 92 c-36 50 -107 154 -160 231 l-96 139 -61 0 -60 0 0 -530z"/>
<path d="M7075 827 l-3 -370 -41 55 -40 55 -93 0 -93 0 149 -215 148 -216 61
0 61 1 0 530 0 530 -73 0 -74 0 -2 -370z"/>
<path d="M7820 1177 c-160 -51 -285 -177 -334 -335 -30 -99 -32 -96 58 -96 77
0 79 0 86 28 12 54 57 130 99 171 166 161 475 121 567 -73 l25 -53 82 0 c95 0
93 -6 39 113 -55 120 -171 213 -312 249 -83 22 -235 20 -310 -4z"/>
<path d="M3257 661 l3 -76 55 -18 c69 -22 84 -35 96 -80 14 -48 -2 -100 -42
-139 -112 -109 -372 -72 -407 58 -7 29 -10 30 -85 33 l-76 3 6 -48 c18 -130
138 -232 307 -261 174 -30 369 60 436 201 29 62 30 161 2 224 -37 83 -136 149
-259 172 l-39 8 3 -77z"/>
<path d="M7917 567 l0 -73 194 0 c107 0 195 -4 195 -9 0 -5 -14 -30 -31 -57
-61 -96 -170 -149 -303 -148 -159 2 -292 106 -343 269 -4 15 -18 18 -85 18
l-79 0 7 -29 c66 -273 315 -447 578 -402 213 36 408 218 429 400 3 31 8 68 11
81 l5 24 -289 0 -289 0 0 -74z"/>
<path d="M137 352 l0 -215 325 0 326 0 0 78 0 79 -247 0 -247 0 0 137 0 136
-79 0 -78 0 0 -215z"/>
<path d="M5870 431 l0 -137 -100 0 -100 0 0 -79 0 -78 273 0 273 0 0 78 0 79
-100 0 -99 0 0 137 0 136 -74 0 -73 0 0 -136z"/>
<path d="M966 215 l0 -78 73 0 c40 -1 75 3 78 8 3 4 17 40 32 79 l26 70 -104
0 -105 0 0 -79z"/>
<path d="M2427 239 c12 -30 26 -66 31 -79 9 -23 13 -23 152 -23 l144 0 -73 77
-72 78 -102 1 -102 1 22 -55z"/>
</g>
</svg>
